<?xml version="1.0" encoding="UTF-8" standalone="no"?>
<!DOCTYPE svg PUBLIC "-//W3C//DTD SVG 1.1//EN" "http://www.w3.org/Graphics/SVG/1.1/DTD/svg11.dtd">
<svg width="100%" height="100%" viewBox="0 0 180 180" version="1.1" xmlns="http://www.w3.org/2000/svg" xmlns:xlink="http://www.w3.org/1999/xlink" xml:space="preserve" xmlns:serif="http://www.serif.com/" style="fill-rule:evenodd;clip-rule:evenodd;stroke-linejoin:round;stroke-miterlimit:2;">
    <g transform="matrix(1,0,0,1,-15708,-3470)">
        <g id="Artboard6" transform="matrix(0.616724,0,0,0.719983,6019.98,971.546)">
            <rect x="15708.9" y="3470.16" width="291.865" height="250.006" style="fill:none;"/>
            <clipPath id="_clip1">
                <rect x="15708.9" y="3470.16" width="291.865" height="250.006"/>
            </clipPath>
            <g clip-path="url(#_clip1)">
                <g id="denologo3" transform="matrix(0.358931,0,0,0.307454,15854.8,3595.17)">
                    <g transform="matrix(1,0,0,1,-504,-512.983)">
                        <clipPath id="_clip2">
                            <rect x="97.425" y="106.391" width="813.15" height="813.184"/>
                        </clipPath>
                        <g clip-path="url(#_clip2)">
                            <g transform="matrix(0.1,0,0,-0.1,0,1024)">
                                <g transform="matrix(10,0,0,-10,10,10240)">
                                    <ellipse cx="504" cy="512.983" rx="406.575" ry="406.592" style="fill:white;"/>
                                </g>
                                <path d="M4720,9174C4701,9172 4640,9165 4585,9160C3803,9078 3033,8747 2405,8221C2289,8125 2025,7861 1929,7745C1409,7124 1105,6427 993,5602C968,5419 968,4801 993,4618C1105,3793 1409,3096 1929,2475C2025,2359 2289,2095 2405,1999C3026,1479 3723,1175 4548,1063C4731,1038 5349,1038 5532,1063C6357,1175 7054,1479 7675,1999C7791,2095 8055,2359 8151,2475C8671,3096 8975,3793 9087,4618C9112,4801 9112,5419 9087,5602C8975,6427 8671,7124 8151,7745C8055,7861 7791,8125 7675,8221C7056,8739 6352,9047 5538,9156C5450,9168 5322,9173 5085,9175C4904,9177 4739,9176 4720,9174ZM4770,8742C4770,8625 4778,8371 4789,8130C4795,8012 4802,7843 4805,7755C4816,7443 4849,6624 4854,6551L4859,6478L4814,6483C4789,6485 4766,6491 4762,6494C4759,6498 4752,6567 4748,6648C4730,7004 4671,8385 4665,8587L4659,8809L4687,8813C4702,8815 4727,8818 4743,8819L4770,8820L4770,8742ZM5727,8766C5728,8765 5731,8463 5734,8095C5738,7726 5743,7395 5746,7359C5749,7322 5748,7290 5743,7288C5739,7285 5714,7285 5689,7288L5643,7292L5636,7583C5632,7744 5627,7922 5625,7980C5617,8157 5610,8758 5616,8773C5620,8784 5631,8785 5673,8778C5702,8772 5726,8767 5727,8766ZM3414,8431C3420,8422 3467,7871 3525,7150C3544,6905 3563,6681 3566,6653C3571,6602 3570,6600 3538,6580C3520,6569 3502,6560 3498,6560C3495,6560 3489,6586 3486,6618C3472,6748 3418,7376 3380,7830C3358,8097 3338,8336 3335,8362C3330,8406 3331,8410 3357,8424C3389,8441 3407,8444 3414,8431ZM6167,8230C6195,8220 6198,8215 6204,8158C6214,8058 6211,7580 6200,7580C6171,7580 6111,7614 6106,7633C6103,7645 6100,7787 6100,7948C6100,8273 6096,8254 6167,8230ZM4320,8183C4320,8156 4327,8007 4335,7850C4343,7693 4352,7494 4356,7408C4363,7234 4365,7240 4298,7236C4265,7235 4265,7235 4263,7285C4261,7313 4256,7400 4250,7480C4245,7560 4233,7733 4225,7865C4217,7997 4207,8128 4204,8156C4198,8206 4199,8208 4226,8218C4242,8224 4270,8229 4288,8229C4320,8230 4320,8230 4320,8183ZM7094,8046L7128,8032L7135,7898C7138,7825 7140,7667 7138,7548L7135,7330L7093,7351L7051,7371L7048,7703C7046,7886 7047,8041 7049,8048C7053,8063 7053,8063 7094,8046ZM5268,7915C5274,7909 5288,7424 5289,7178L5290,7030L5243,7037C5216,7040 5194,7043 5193,7044C5190,7046 5160,7787 5160,7859L5160,7933L5211,7927C5240,7923 5265,7918 5268,7915ZM7571,7844C7583,7830 7585,7611 7588,6403C7591,5016 7591,4980 7573,4980C7562,4980 7547,4986 7538,4993C7523,5004 7521,5125 7516,6310C7512,7028 7507,7680 7504,7759L7498,7903L7527,7882C7544,7870 7563,7853 7571,7844ZM6674,7639C6679,7635 6684,7578 6685,7513C6690,7292 6691,5937 6686,5933C6684,5931 6666,5936 6646,5944L6610,5959L6610,7660L6638,7654C6653,7650 6669,7644 6674,7639ZM3914,7583C3917,7556 3922,7495 3925,7445C3928,7396 3935,7284 3941,7197C3953,7021 3951,7010 3894,7010C3864,7010 3860,7013 3856,7043C3846,7102 3811,7594 3816,7602C3821,7609 3873,7627 3897,7629C3903,7630 3911,7609 3914,7583ZM2260,7328C2271,7222 2293,7000 2309,6835C2326,6670 2340,6530 2340,6524C2340,6512 2263,6474 2255,6482C2250,6487 2150,7372 2150,7412C2150,7436 2227,7537 2237,7526C2240,7524 2250,7435 2260,7328ZM6181,7223L6210,7206L6211,6990C6212,6872 6214,6740 6214,6697C6216,6607 6205,6592 6151,6611L6120,6622L6120,6708C6120,6756 6117,6895 6113,7018L6107,7240L6130,7240C6142,7240 6165,7232 6181,7223ZM2699,6835C2717,6643 2746,6319 2765,6115L2799,5745L2760,5706L2722,5667L2715,5746C2711,5790 2691,5994 2670,6200C2649,6406 2619,6705 2604,6864L2576,7152L2615,7188C2650,7221 2654,7222 2661,7204C2665,7194 2682,7028 2699,6835ZM1950,6714C1972,6517 2030,5993 2080,5550C2130,5107 2177,4680 2186,4600C2194,4520 2208,4399 2216,4330C2230,4213 2230,4205 2214,4193C2190,4175 2180,4177 2180,4198C2180,4207 2171,4283 2160,4365C2142,4502 2112,4734 2045,5255C2031,5360 2004,5569 1985,5720C1965,5871 1936,6096 1920,6220C1904,6344 1877,6556 1860,6693C1842,6829 1831,6950 1834,6963C1841,6990 1900,7084 1906,7078C1908,7075 1928,6912 1950,6714ZM1644,6283C1659,6163 1687,5944 1706,5795C1725,5647 1749,5462 1760,5385L1779,5245L1758,5227C1746,5217 1734,5213 1730,5217C1726,5221 1718,5261 1712,5305C1706,5349 1669,5606 1629,5875L1558,6365L1581,6433C1593,6470 1606,6500 1609,6500C1613,6500 1628,6402 1644,6283ZM7134,6414C7148,6400 7150,6338 7150,5879L7150,5360L7122,5360C7061,5360 7062,5345 7058,5913L7055,6430L7087,6430C7104,6430 7126,6423 7134,6414ZM4945,6235C5171,6201 5368,6138 5563,6038C5689,5973 5749,5928 5889,5794C6097,5595 6225,5421 6345,5175C6520,4817 6588,4500 6674,3650C6713,3269 6764,2578 6775,2295C6778,2213 6785,2078 6791,1995C6802,1819 6815,1843 6660,1768C6445,1664 6238,1592 5965,1525C5631,1443 5415,1417 5085,1416L4845,1415L4847,1530C4847,1593 4853,1740 4859,1855C4889,2412 4883,3115 4844,3505C4822,3729 4779,4001 4755,4061C4750,4074 4773,4085 4872,4119C5053,4182 5210,4261 5234,4300C5277,4374 5200,4480 5102,4480C5085,4480 5034,4462 4987,4441C4763,4338 4314,4217 4055,4190C3876,4171 3598,4182 3405,4217C3300,4236 3112,4307 2955,4388C2774,4482 2663,4607 2630,4755C2612,4835 2617,4995 2640,5085C2665,5184 2735,5328 2799,5412C3084,5787 3672,6112 4275,6226C4467,6262 4739,6266 4945,6235ZM8030,6204C8066,6189 8070,6185 8070,6151C8072,5878 8066,5254 8061,5228C8060,5219 8008,5218 7986,5226C7972,5231 7970,5285 7970,5726C7970,6042 7974,6220 7980,6220C7985,6220 8008,6213 8030,6204ZM8467,5655L8503,5640L8496,4812C8488,3757 8487,3726 8449,3635C8387,3486 8390,3456 8396,4110C8398,4437 8403,4768 8405,4845C8407,4922 8409,5139 8410,5328C8410,5556 8413,5670 8420,5670C8426,5670 8447,5663 8467,5655ZM2453,5406C2459,5325 2457,5317 2428,5253L2396,5185L2384,5285C2365,5445 2365,5452 2403,5476C2420,5488 2438,5496 2441,5494C2444,5492 2450,5452 2453,5406ZM1835,4803C1844,4721 1914,4177 1950,3910C2004,3497 2008,3438 1984,3463C1981,3466 1958,3605 1934,3772C1778,4850 1779,4843 1792,4851C1819,4869 1828,4859 1835,4803ZM2555,4345C2561,4320 2590,4049 2590,4016C2590,3988 2554,3962 2538,3978C2533,3983 2520,4068 2510,4166C2499,4265 2488,4368 2485,4395L2479,4445L2514,4405C2534,4383 2552,4356 2555,4345ZM3362,3968C3373,3958 3380,3918 3389,3810C3404,3615 3406,3630 3365,3630C3323,3630 3324,3627 3310,3803C3296,3982 3296,3980 3323,3980C3336,3980 3353,3974 3362,3968ZM4154,3953C4156,3943 4161,3883 4165,3820C4168,3757 4177,3615 4185,3505C4213,3101 4214,3050 4197,3050C4178,3050 4176,3065 4154,3350C4146,3468 4131,3654 4121,3763C4112,3872 4106,3963 4109,3965C4120,3977 4149,3968 4154,3953ZM2274,3761C2280,3752 2318,3432 2365,2995C2379,2863 2393,2736 2396,2712L2401,2669L2376,2685C2357,2698 2350,2711 2350,2734C2350,2797 2307,3212 2274,3466C2255,3610 2240,3737 2240,3749C2240,3770 2264,3778 2274,3761ZM8045,3343L8038,2925L8013,2888C7956,2804 7959,2788 7962,3256L7964,3685L8001,3723C8021,3743 8041,3760 8045,3760C8048,3760 8048,3572 8045,3343ZM7120,2680C7125,2099 7124,2054 7108,2036C7098,2025 7089,2018 7086,2021C7079,2029 7069,3296 7077,3303C7081,3307 7091,3309 7100,3308C7113,3305 7116,3234 7120,2680ZM3854,3078C3861,3016 3886,2719 3896,2579C3902,2485 3902,2482 3880,2475C3868,2471 3854,2472 3850,2477C3843,2484 3821,2706 3794,3048L3787,3130L3818,3130C3847,3130 3849,3128 3854,3078ZM3068,2728C3075,2721 3080,2696 3080,2671C3080,2645 3092,2510 3105,2370C3143,1987 3146,1935 3129,1945C3103,1960 3080,1983 3085,1989C3087,1993 3083,2043 3075,2100C3068,2158 3059,2252 3055,2310C3051,2368 3042,2474 3034,2545C3015,2720 3016,2740 3038,2740C3048,2740 3061,2735 3068,2728ZM3541,2055C3544,2033 3550,1951 3554,1873C3561,1723 3558,1712 3517,1743C3505,1752 3497,1790 3485,1904C3464,2110 3463,2102 3502,2098C3531,2095 3535,2091 3541,2055Z" style="fill-rule:nonzero;"/>
                                <path d="M3184,5756C3080,5711 3072,5570 3170,5520C3241,5484 3313,5501 3350,5563C3420,5677 3306,5809 3184,5756Z" style="fill-rule:nonzero;"/>
                                <path d="M3862,5660C3766,5601 3766,5459 3862,5400C3957,5343 4080,5418 4080,5532C4080,5642 3954,5716 3862,5660Z" style="fill-rule:nonzero;"/>
                            </g>
                        </g>
                    </g>
                </g>
            </g>
        </g>
    </g>
</svg>
