<?xml version="1.0" encoding="UTF-8" standalone="no"?>
<!DOCTYPE svg PUBLIC "-//W3C//DTD SVG 1.1//EN" "http://www.w3.org/Graphics/SVG/1.1/DTD/svg11.dtd">
<svg width="100%" height="100%" viewBox="0 0 43 39" version="1.1" xmlns="http://www.w3.org/2000/svg" xmlns:xlink="http://www.w3.org/1999/xlink" xml:space="preserve" xmlns:serif="http://www.serif.com/" style="fill-rule:evenodd;clip-rule:evenodd;">
    <g transform="matrix(1,0,0,1,-8959.46,-3421.07)">
        <g transform="matrix(2.42578,0,0,3.15282,-12131.3,-3449.29)">
            <g id="data_image_svg-xml--" serif:id="data_image_svg+xml;…" transform="matrix(0.770708,0,0,0.592982,8703.31,2185.18)">
                <g transform="matrix(1,0,0,1,-11.5,-10.2317)">
                    <clipPath id="_clip1">
                        <rect x="0" y="0" width="23" height="20.463"/>
                    </clipPath>
                    <g clip-path="url(#_clip1)">
                        <g transform="matrix(1,0,0,1,11.5,10.2317)">
                            <circle cx="0" cy="0" r="2.05" style="fill:rgb(235,244,246);"/>
                        </g>
                        <g transform="matrix(1,0,0,1,11.5,10.2317)">
                            <g opacity="0.9">
                                <ellipse cx="0" cy="0" rx="11" ry="4.2" style="fill:none;stroke:white;stroke-width:1px;"/>
                                <g transform="matrix(0.5,0.866025,-0.866025,0.5,0,0)">
                                    <ellipse cx="0" cy="0" rx="11" ry="4.2" style="fill:none;stroke:white;stroke-width:1px;"/>
                                </g>
                                <g transform="matrix(-0.5,0.866025,-0.866025,-0.5,0,0)">
                                    <ellipse cx="0" cy="0" rx="11" ry="4.2" style="fill:none;stroke:white;stroke-width:1px;"/>
                                </g>
                            </g>
                        </g>
                    </g>
                </g>
            </g>
        </g>
    </g>
</svg>
