<?xml version="1.0" encoding="UTF-8" standalone="no"?>
<!DOCTYPE svg PUBLIC "-//W3C//DTD SVG 1.1//EN" "http://www.w3.org/Graphics/SVG/1.1/DTD/svg11.dtd">
<svg width="100%" height="100%" viewBox="0 0 163 44" version="1.1" xmlns="http://www.w3.org/2000/svg" xmlns:xlink="http://www.w3.org/1999/xlink" xml:space="preserve" xmlns:serif="http://www.serif.com/" style="fill-rule:evenodd;clip-rule:evenodd;stroke-linejoin:round;stroke-miterlimit:2;">
    <g transform="matrix(1,0,0,1,-4131.74,-87)">
        <g transform="matrix(0.756799,0,0,0.411585,1487.64,64.4451)">
            <g transform="matrix(0.40783,0,0,0.749894,2909.8,-181.584)">
                <g transform="matrix(145.798,0,0,145.798,1419.39,425.729)">
                    <path d="M0.265,-0.603L0.345,-0.603C0.43,-0.603 0.475,-0.58 0.475,-0.51C0.475,-0.44 0.43,-0.403 0.345,-0.403L0.265,-0.403L0.265,-0.603ZM0.688,-0L0.522,-0.295C0.599,-0.331 0.65,-0.401 0.65,-0.51C0.65,-0.69 0.518,-0.744 0.359,-0.744L0.086,-0.744L0.086,-0L0.265,-0L0.265,-0.262L0.351,-0.262L0.488,-0L0.688,-0Z" style="fill:rgb(255,113,102);fill-rule:nonzero;"/>
                </g>
                <g transform="matrix(145.798,0,0,145.798,1522.62,425.729)">
                    <path d="M0.143,0.219C0.278,0.219 0.339,0.147 0.395,0.001L0.59,-0.569L0.421,-0.569L0.355,-0.333C0.342,-0.279 0.329,-0.226 0.318,-0.172L0.313,-0.172C0.298,-0.228 0.286,-0.281 0.269,-0.333L0.193,-0.569L0.014,-0.569L0.232,-0.017L0.224,0.012C0.211,0.052 0.183,0.08 0.129,0.08C0.116,0.08 0.101,0.075 0.091,0.073L0.059,0.207C0.083,0.215 0.106,0.219 0.143,0.219Z" style="fill:rgb(255,113,102);fill-rule:nonzero;"/>
                </g>
                <g transform="matrix(145.798,0,0,145.798,1610.68,425.729)">
                    <path d="M0.401,0.014C0.498,0.014 0.581,-0.023 0.644,-0.096L0.55,-0.208C0.515,-0.17 0.467,-0.14 0.408,-0.14C0.303,-0.14 0.235,-0.226 0.235,-0.374C0.235,-0.519 0.314,-0.605 0.41,-0.605C0.463,-0.605 0.502,-0.581 0.539,-0.547L0.633,-0.661C0.582,-0.713 0.504,-0.758 0.407,-0.758C0.218,-0.758 0.052,-0.616 0.052,-0.368C0.052,-0.116 0.212,0.014 0.401,0.014Z" style="fill:rgb(18,119,128);fill-rule:nonzero;"/>
                </g>
                <g transform="matrix(145.798,0,0,145.798,1707.93,425.729)">
                    <path d="M0.319,0.014C0.463,0.014 0.597,-0.096 0.597,-0.284C0.597,-0.473 0.463,-0.583 0.319,-0.583C0.174,-0.583 0.04,-0.473 0.04,-0.284C0.04,-0.096 0.174,0.014 0.319,0.014ZM0.319,-0.13C0.252,-0.13 0.222,-0.19 0.222,-0.284C0.222,-0.379 0.252,-0.439 0.319,-0.439C0.385,-0.439 0.415,-0.379 0.415,-0.284C0.415,-0.19 0.385,-0.13 0.319,-0.13Z" style="fill:rgb(18,119,128);fill-rule:nonzero;"/>
                </g>
                <g transform="matrix(145.798,0,0,145.798,1800.8,425.729)">
                    <path d="M0.072,-0L0.249,-0L0.249,-0.38C0.284,-0.413 0.308,-0.431 0.348,-0.431C0.393,-0.431 0.414,-0.408 0.414,-0.33L0.414,-0L0.592,-0L0.592,-0.352C0.592,-0.494 0.539,-0.583 0.415,-0.583C0.338,-0.583 0.28,-0.544 0.233,-0.498L0.229,-0.498L0.217,-0.569L0.072,-0.569L0.072,-0Z" style="fill:rgb(18,119,128);fill-rule:nonzero;"/>
                </g>
                <g transform="matrix(145.798,0,0,145.798,1896.74,425.729)">
                    <path d="M0.296,0.014C0.354,0.014 0.395,0.002 0.425,-0.007L0.397,-0.135C0.383,-0.131 0.363,-0.125 0.345,-0.125C0.303,-0.125 0.273,-0.15 0.273,-0.213L0.273,-0.43L0.407,-0.43L0.407,-0.569L0.273,-0.569L0.273,-0.719L0.125,-0.719L0.105,-0.569L0.018,-0.562L0.018,-0.43L0.095,-0.43L0.095,-0.211C0.095,-0.076 0.153,0.014 0.296,0.014Z" style="fill:rgb(18,119,128);fill-rule:nonzero;"/>
                </g>
            </g>
        </g>
    </g>
</svg>
