<?xml version="1.0" encoding="UTF-8" standalone="no"?>
<!DOCTYPE svg PUBLIC "-//W3C//DTD SVG 1.1//EN" "http://www.w3.org/Graphics/SVG/1.1/DTD/svg11.dtd">
<svg width="100%" height="100%" viewBox="0 0 720 1064" version="1.1" xmlns="http://www.w3.org/2000/svg" xmlns:xlink="http://www.w3.org/1999/xlink" xml:space="preserve" xmlns:serif="http://www.serif.com/" style="fill-rule:evenodd;clip-rule:evenodd;stroke-linejoin:round;stroke-miterlimit:2;">
    <g transform="matrix(1,0,0,1,-9552.88,-3031.35)">
        <g transform="matrix(2.42578,0,0,3.15282,-12131.3,-3449.29)">
            <g transform="matrix(0.239906,0,0,0.315211,6647.29,1099.99)">
                <rect x="9552.88" y="3031.35" width="1237.2" height="1070.44" style="fill:white;"/>
                <path d="M10790.1,3031.35L9552.88,3031.35L9552.88,4101.79L10790.1,4101.79L10790.1,3031.35ZM9563.19,3037.39L9563.19,4095.76L10779.8,4095.76L10779.8,3037.39L9563.19,3037.39Z" style="fill:rgb(196,196,196);"/>
            </g>
            <g id="umlang-official" transform="matrix(5.56523,0,0,4.28188,9087.49,2183.96)">
                <g transform="matrix(1,0,0,1,-16,-20)">
                    <clipPath id="_clip1">
                        <rect x="0" y="0" width="32" height="40"/>
                    </clipPath>
                    <g clip-path="url(#_clip1)">
                        <rect id="Artboard1" x="0" y="0" width="31.722" height="39.195" style="fill:none;"/>
                        <g>
                            <g>
                                <g transform="matrix(36,0,-3.14959,36,1.31054,34.011)">
                                    <path d="M0.65,-0.478L0.496,-0.478C0.492,-0.454 0.484,-0.432 0.471,-0.41C0.458,-0.39 0.442,-0.371 0.422,-0.355C0.402,-0.339 0.379,-0.326 0.352,-0.317C0.325,-0.308 0.294,-0.303 0.261,-0.303C0.224,-0.303 0.19,-0.309 0.161,-0.321C0.132,-0.332 0.107,-0.347 0.086,-0.367C0.065,-0.386 0.05,-0.407 0.039,-0.433C0.028,-0.458 0.023,-0.484 0.023,-0.511L0.023,-0.547C0.023,-0.574 0.028,-0.6 0.039,-0.625C0.05,-0.65 0.065,-0.673 0.086,-0.692C0.107,-0.711 0.132,-0.726 0.161,-0.738C0.19,-0.749 0.224,-0.755 0.261,-0.755C0.294,-0.755 0.324,-0.75 0.35,-0.742C0.378,-0.733 0.401,-0.72 0.421,-0.705C0.441,-0.689 0.457,-0.671 0.469,-0.65C0.482,-0.629 0.49,-0.607 0.495,-0.584L0.599,-0.584C0.628,-0.584 0.65,-0.606 0.65,-0.635L0.65,-0.735C0.65,-0.764 0.672,-0.786 0.701,-0.786L0.776,-0.786L0.776,-0.317C0.776,-0.288 0.754,-0.266 0.725,-0.266L0.65,-0.266L0.65,-0.478ZM0.185,-0.173C0.185,-0.202 0.207,-0.224 0.236,-0.224L0.776,-0.224L0.776,0.093C0.776,0.122 0.754,0.144 0.725,0.144L0.185,0.144L0.185,-0.173ZM0.31,0.039L0.626,0.039C0.64,0.039 0.651,0.028 0.651,0.014L0.651,-0.119L0.335,-0.119C0.321,-0.119 0.31,-0.108 0.31,-0.094L0.31,0.039ZM0.261,-0.648C0.242,-0.648 0.226,-0.645 0.211,-0.639C0.196,-0.633 0.184,-0.625 0.174,-0.615C0.164,-0.605 0.156,-0.594 0.151,-0.582C0.146,-0.569 0.143,-0.557 0.143,-0.544L0.143,-0.514C0.143,-0.501 0.146,-0.489 0.151,-0.476C0.156,-0.464 0.164,-0.453 0.174,-0.443C0.184,-0.433 0.196,-0.425 0.211,-0.419C0.226,-0.413 0.242,-0.41 0.261,-0.41C0.28,-0.41 0.296,-0.413 0.311,-0.419C0.326,-0.425 0.338,-0.433 0.348,-0.443C0.358,-0.453 0.366,-0.464 0.371,-0.476C0.376,-0.489 0.379,-0.501 0.379,-0.514L0.379,-0.544C0.379,-0.557 0.376,-0.569 0.371,-0.582C0.366,-0.594 0.358,-0.605 0.348,-0.615C0.338,-0.625 0.326,-0.633 0.311,-0.639C0.296,-0.645 0.28,-0.648 0.261,-0.648Z" style="fill:rgb(113,136,150);fill-rule:nonzero;"/>
                                </g>
                                <g transform="matrix(36,0,-3.14959,36,1.31054,34.011)">
                                    <g>
                                        <clipPath id="_clip2">
                                            <path d="M-0.079,-0.528C-0.045,-0.435 0.154,-0.453 0.264,-0.498C0.373,-0.543 0.475,-0.653 0.429,-0.75C0.383,-0.847 0.199,-0.807 0.106,-0.758C0.013,-0.709 -0.114,-0.621 -0.079,-0.528Z"/>
                                        </clipPath>
                                        <g clip-path="url(#_clip2)">
                                            <path d="M0.65,-0.478L0.496,-0.478C0.492,-0.454 0.484,-0.432 0.471,-0.41C0.458,-0.39 0.442,-0.371 0.422,-0.355C0.402,-0.339 0.379,-0.326 0.352,-0.317C0.325,-0.308 0.294,-0.303 0.261,-0.303C0.224,-0.303 0.19,-0.309 0.161,-0.321C0.132,-0.332 0.107,-0.347 0.086,-0.367C0.065,-0.386 0.05,-0.407 0.039,-0.433C0.028,-0.458 0.023,-0.484 0.023,-0.511L0.023,-0.547C0.023,-0.574 0.028,-0.6 0.039,-0.625C0.05,-0.65 0.065,-0.673 0.086,-0.692C0.107,-0.711 0.132,-0.726 0.161,-0.738C0.19,-0.749 0.224,-0.755 0.261,-0.755C0.294,-0.755 0.324,-0.75 0.35,-0.742C0.378,-0.733 0.401,-0.72 0.421,-0.705C0.441,-0.689 0.457,-0.671 0.469,-0.65C0.482,-0.629 0.49,-0.607 0.495,-0.584L0.599,-0.584C0.628,-0.584 0.65,-0.606 0.65,-0.635L0.65,-0.735C0.65,-0.764 0.672,-0.786 0.701,-0.786L0.776,-0.786L0.776,-0.317C0.776,-0.288 0.754,-0.266 0.725,-0.266L0.65,-0.266L0.65,-0.478ZM0.185,-0.173C0.185,-0.202 0.207,-0.224 0.236,-0.224L0.776,-0.224L0.776,0.093C0.776,0.122 0.754,0.144 0.725,0.144L0.185,0.144L0.185,-0.173ZM0.31,0.039L0.626,0.039C0.64,0.039 0.651,0.028 0.651,0.014L0.651,-0.119L0.335,-0.119C0.321,-0.119 0.31,-0.108 0.31,-0.094L0.31,0.039ZM0.261,-0.648C0.242,-0.648 0.226,-0.645 0.211,-0.639C0.196,-0.633 0.184,-0.625 0.174,-0.615C0.164,-0.605 0.156,-0.594 0.151,-0.582C0.146,-0.569 0.143,-0.557 0.143,-0.544L0.143,-0.514C0.143,-0.501 0.146,-0.489 0.151,-0.476C0.156,-0.464 0.164,-0.453 0.174,-0.443C0.184,-0.433 0.196,-0.425 0.211,-0.419C0.226,-0.413 0.242,-0.41 0.261,-0.41C0.28,-0.41 0.296,-0.413 0.311,-0.419C0.326,-0.425 0.338,-0.433 0.348,-0.443C0.358,-0.453 0.366,-0.464 0.371,-0.476C0.376,-0.489 0.379,-0.501 0.379,-0.514L0.379,-0.544C0.379,-0.557 0.376,-0.569 0.371,-0.582C0.366,-0.594 0.358,-0.605 0.348,-0.615C0.338,-0.625 0.326,-0.633 0.311,-0.639C0.296,-0.645 0.28,-0.648 0.261,-0.648Z" style="fill-rule:nonzero;"/>
                                        </g>
                                    </g>
                                </g>
                                <g transform="matrix(1,0,0,1,-4611.88,-971.99)">
                                    <path d="M4612,986C4612.95,989.358 4620.16,988.687 4624.25,987.065C4628.34,985.443 4632.36,981.479 4631,978C4629.64,974.52 4622.89,975.943 4619.4,977.705C4615.9,979.466 4611.05,982.642 4612,986Z" style="fill:rgb(93,100,127);"/>
                                </g>
                                <g transform="matrix(1,0,0,1,-4611.88,-971.99)">
                                    <path d="M4614.6,984.84C4613.24,980.029 4611.74,975.936 4615,974C4617.75,972.367 4618.17,972.239 4622,972C4625.95,971.754 4628.37,975.935 4628.56,980C4628.75,984.065 4615.96,989.651 4614.6,984.84Z" style="fill:rgb(50,60,96);"/>
                                </g>
                            </g>
                        </g>
                    </g>
                </g>
            </g>
        </g>
    </g>
</svg>
